<?xml version="1.0" standalone="no"?>
<!DOCTYPE svg PUBLIC "-//W3C//DTD SVG 20010904//EN"
 "http://www.w3.org/TR/2001/REC-SVG-20010904/DTD/svg10.dtd">
<svg version="1.0" xmlns="http://www.w3.org/2000/svg"
 width="486.000000pt" height="98.000000pt" viewBox="0 0 486.000000 98.000000"
 preserveAspectRatio="xMidYMid meet">

<g transform="translate(0.000000,98.000000) scale(0.100000,-0.100000)"
fill="#000000" stroke="none">
<path d="M125 886 c-64 -28 -65 -33 -65 -374 l0 -309 -31 -7 c-29 -5 -30 -8
-27 -48 l3 -43 373 -3 372 -2 0 50 0 50 -320 0 -320 0 0 313 c0 230 3 316 12
325 9 9 133 12 497 12 l485 0 -22 23 -23 22 -452 2 c-360 2 -458 0 -482 -11z
m570 -736 c0 -25 -1 -25 -103 -28 -85 -2 -103 0 -108 13 -3 8 -3 22 0 30 5 13
23 15 108 13 102 -3 103 -3 103 -28z"/>
<path d="M834 776 c-18 -14 -19 -29 -19 -331 0 -304 1 -317 20 -331 15 -11 49
-14 150 -12 l130 3 3 47 3 47 -133 3 -133 3 0 255 0 255 188 3 c160 2 188 0
193 -13 4 -8 15 -15 25 -15 15 0 19 7 19 33 0 63 -13 67 -231 67 -153 0 -199
-3 -215 -14z m240 -619 c14 -22 -5 -41 -33 -32 -23 7 -29 40 -8 48 18 8 29 3
41 -16z"/>
<path d="M2584 690 c-50 -11 -99 -46 -130 -92 -25 -37 -29 -52 -29 -113 0 -62
4 -75 30 -112 67 -94 198 -119 283 -54 23 17 23 17 4 41 -19 23 -20 23 -60 7
-45 -18 -91 -14 -132 11 -41 25 -49 44 -50 108 0 54 3 65 28 89 47 47 102 58
156 30 27 -15 31 -14 53 7 12 12 23 24 23 28 0 9 -88 47 -120 53 -14 2 -39 1
-56 -3z"/>
<path d="M4577 694 c-16 -5 -17 -22 -15 -207 l3 -202 115 0 115 0 3 32 3 33
-86 0 -86 0 3 48 3 47 60 5 60 5 0 35 0 35 -63 0 -62 0 0 47 c0 46 0 46 39 53
21 3 54 3 73 0 40 -8 63 12 53 45 -5 15 -15 20 -44 20 -21 0 -65 2 -97 4 -32
3 -67 3 -77 0z"/>
<path d="M1810 655 l0 -35 50 0 50 0 2 -167 3 -168 35 0 35 0 3 167 2 167 48
3 c45 3 47 4 50 36 l3 32 -140 0 -141 0 0 -35z"/>
<path d="M2132 488 l3 -203 118 -3 117 -3 0 35 0 35 -77 3 -78 3 0 45 0 45 58
3 57 3 0 39 0 40 -60 0 -60 0 0 45 0 44 78 3 77 3 3 33 3 32 -121 0 -120 0 2
-202z"/>
<path d="M2812 488 l3 -203 32 -3 32 -3 3 83 3 83 67 3 67 3 3 -83 3 -83 33
-3 32 -3 0 205 0 206 -35 0 -35 0 0 -80 0 -80 -70 0 -70 0 0 80 0 80 -35 0
-35 0 2 -202z"/>
<path d="M3140 671 c0 -42 10 -51 61 -51 l49 0 0 -171 0 -170 33 3 32 3 3 167
2 167 53 3 c51 3 52 4 55 36 l3 32 -145 0 c-137 0 -146 -1 -146 -19z"/>
<path d="M3480 485 l0 -205 29 0 c36 0 41 13 41 97 0 76 10 75 56 -5 41 -72
63 -92 101 -92 40 0 41 9 5 63 -45 67 -46 74 -7 113 34 33 41 55 36 114 -6 84
-60 120 -180 120 l-81 0 0 -205z m153 124 c68 -36 38 -119 -43 -119 l-40 0 0
65 0 65 31 0 c17 0 40 -5 52 -11z"/>
<path d="M4204 677 c-2 -7 -3 -98 -2 -202 l3 -190 80 1 c140 1 207 54 221 178
12 101 -44 191 -133 215 -55 16 -162 14 -169 -2z m153 -68 c58 -22 73 -46 73
-121 0 -58 -4 -73 -22 -92 -29 -30 -96 -52 -111 -37 -8 8 -14 229 -8 259 2 6
42 1 68 -9z"/>
<path d="M3970 671 c0 -5 -16 -44 -35 -85 -19 -42 -35 -78 -35 -80 0 -5 -78
-176 -91 -199 -7 -13 -6 -19 5 -23 29 -11 60 2 76 31 16 29 20 30 93 33 67 2
78 0 83 -15 11 -37 22 -48 49 -51 41 -5 46 8 23 58 -26 55 -70 153 -90 200
-48 107 -59 129 -68 135 -5 3 -10 2 -10 -4z m25 -191 c4 -6 10 -24 15 -40 8
-29 8 -30 -26 -30 -37 0 -41 10 -24 54 10 27 24 33 35 16z"/>
<path d="M1202 607 c-21 -22 -22 -31 -22 -245 0 -278 -10 -262 161 -262 94 0
121 3 133 16 14 13 16 50 16 249 0 284 11 265 -155 265 -104 0 -113 -2 -133
-23z m253 -212 l0 -190 -113 0 -113 0 0 188 c0 103 1 189 1 192 0 3 51 4 113
3 l112 -3 0 -190z m-97 -224 c21 -13 10 -46 -16 -49 -24 -4 -38 18 -28 43 6
17 24 19 44 6z"/>
</g>
</svg>
