<?xml version="1.0" standalone="no"?>
<!DOCTYPE svg PUBLIC "-//W3C//DTD SVG 20010904//EN"
 "http://www.w3.org/TR/2001/REC-SVG-20010904/DTD/svg10.dtd">
<svg version="1.0" xmlns="http://www.w3.org/2000/svg"
 width="1027.000000pt" height="672.000000pt" viewBox="0 0 1027.000000 672.000000"
 preserveAspectRatio="xMidYMid meet">

<g transform="translate(0.000000,672.000000) scale(0.100000,-0.100000)"
fill="#000000" stroke="none">
<path d="M4493 4140 c-12 -5 -30 -21 -40 -36 -16 -25 -18 -59 -21 -341 l-3
-313 -25 0 c-22 0 -24 -4 -24 -50 l0 -50 375 0 375 0 0 50 0 50 -302 1 c-167
1 -311 2 -320 2 -17 0 -18 21 -18 307 0 274 2 309 17 321 13 11 104 14 494 14
262 0 480 3 484 6 3 4 -7 16 -23 28 -30 21 -38 21 -489 20 -252 0 -468 -4
-480 -9z m572 -740 c0 -20 -5 -25 -35 -27 -65 -6 -165 11 -165 27 0 17 66 28
150 26 46 -1 50 -3 50 -26z"/>
<path d="M5195 4016 c-23 -35 -18 -627 5 -650 12 -12 46 -15 155 -17 l140 -1
3 51 c4 59 21 53 -150 51 l-108 -1 0 255 0 256 185 0 c154 0 185 -2 185 -14 0
-10 9 -14 28 -12 21 2 28 9 30 30 2 15 -4 38 -13 52 l-15 24 -215 0 -215 0
-15 -24z m255 -616 c0 -15 -7 -20 -25 -20 -18 0 -25 5 -25 20 0 15 7 20 25 20
18 0 25 -5 25 -20z"/>
<path d="M5570 3861 c-6 -12 -10 -110 -10 -250 0 -195 2 -232 16 -245 17 -18
24 -18 174 -16 84 1 107 4 118 17 18 25 17 471 -2 496 -11 15 -31 17 -149 17
-125 0 -137 -2 -147 -19z m260 -216 l0 -185 -110 0 -110 0 0 185 0 185 110 0
110 0 0 -185z m-90 -245 c0 -23 -35 -28 -43 -6 -7 18 1 26 25 26 11 0 18 -7
18 -20z"/>
<path d="M3630 3010 c0 -30 1 -30 55 -30 l55 0 0 -160 0 -160 35 0 35 0 0 160
0 160 39 0 c55 0 71 8 71 36 l0 24 -145 0 -145 0 0 -30z"/>
<path d="M3970 2850 l0 -190 133 0 132 0 1 30 1 30 -92 0 -93 0 -4 50 -3 50
68 0 67 0 0 30 0 30 -64 0 -63 0 -6 36 c-10 60 -4 64 88 64 83 0 102 7 101 40
-1 12 -24 15 -133 18 l-133 3 0 -191z"/>
<path d="M4335 3030 c-37 -15 -43 -33 -45 -150 -4 -162 -3 -168 25 -195 23
-23 31 -25 130 -25 l105 0 0 30 0 29 -92 3 -93 3 -3 122 c-3 141 -12 131 113
135 68 3 70 4 73 31 l3 27 -98 -1 c-54 0 -107 -4 -118 -9z"/>
<path d="M4610 2850 l0 -190 35 0 35 0 0 80 0 80 69 0 c78 0 85 -6 80 -78 -4
-77 -2 -82 36 -82 l35 0 0 190 0 190 -35 0 c-35 0 -35 0 -36 -47 -1 -27 -2
-61 -3 -78 l-1 -30 -72 -3 -73 -3 0 81 0 80 -35 0 -35 0 0 -190z"/>
<path d="M4950 3010 c0 -30 1 -30 55 -30 l55 0 0 -160 0 -160 35 0 35 0 0 159
0 160 53 3 c48 3 52 5 55 31 l3 27 -145 0 -146 0 0 -30z"/>
<path d="M5300 2850 l0 -190 35 0 35 0 0 70 0 70 38 0 c37 0 39 -2 72 -70 33
-68 35 -70 72 -70 21 0 38 5 38 11 0 6 -16 38 -36 71 l-36 59 25 19 c29 23 42
80 32 141 -11 63 -45 79 -172 79 l-103 0 0 -190z m201 98 c4 -16 4 -40 0 -55
-7 -26 -11 -28 -69 -31 l-62 -3 0 61 0 61 62 -3 c58 -3 62 -5 69 -30z"/>
<path d="M5681 2857 c-34 -100 -61 -185 -61 -190 0 -4 17 -7 38 -7 36 0 39 2
48 38 l9 37 73 3 c59 2 72 0 72 -12 0 -8 5 -27 12 -41 9 -19 19 -25 45 -25 19
0 33 5 33 13 1 6 -25 92 -57 189 l-58 177 -47 1 -46 0 -61 -183z m142 -4 l16
-53 -50 0 c-27 0 -49 3 -49 8 0 4 10 40 22 81 22 74 22 74 34 45 7 -16 19 -53
27 -81z"/>
<path d="M6010 2850 l0 -190 115 0 c113 0 117 1 140 26 24 26 25 33 25 156 0
193 -5 198 -186 198 l-94 0 0 -190z m198 118 c13 -13 17 -202 6 -232 -5 -12
-21 -16 -70 -16 l-64 0 0 130 0 130 58 0 c32 0 63 -5 70 -12z"/>
<path d="M6370 2850 l0 -190 130 0 130 0 0 30 0 30 -95 0 -95 0 0 50 0 50 70
0 70 0 0 30 0 30 -70 0 -70 0 0 50 0 49 93 3 92 3 3 28 3 27 -130 0 -131 0 0
-190z"/>
</g>
</svg>
